<?xml version="1.0" encoding="UTF-8" standalone="no"?>
<!-- Created with Inkscape (http://www.inkscape.org/) -->

<svg
   xmlns:dc="http://purl.org/dc/elements/1.1/"
   xmlns:cc="http://creativecommons.org/ns#"
   xmlns:rdf="http://www.w3.org/1999/02/22-rdf-syntax-ns#"
   xmlns:svg="http://www.w3.org/2000/svg"
   xmlns="http://www.w3.org/2000/svg"
   xmlns:sodipodi="http://sodipodi.sourceforge.net/DTD/sodipodi-0.dtd"
   xmlns:inkscape="http://www.inkscape.org/namespaces/inkscape"
   width="185.78949"
   height="114.59513"
   id="svg2"
   version="1.1"
   inkscape:version="0.48.1 "
   sodipodi:docname="signature.svg"
   inkscape:export-filename="C:\schlegel\signature.png"
   inkscape:export-xdpi="1000"
   inkscape:export-ydpi="1000">
  <defs
     id="defs4" />
  <sodipodi:namedview
     id="base"
     pagecolor="#ffffff"
     bordercolor="#666666"
     borderopacity="1.0"
     inkscape:pageopacity="0.0"
     inkscape:pageshadow="2"
     inkscape:zoom="3.959798"
     inkscape:cx="81.820735"
     inkscape:cy="51.99212"
     inkscape:document-units="px"
     inkscape:current-layer="layer1"
     showgrid="false"
     fit-margin-top="0"
     fit-margin-left="0"
     fit-margin-right="0"
     fit-margin-bottom="0"
     inkscape:window-width="1440"
     inkscape:window-height="878"
     inkscape:window-x="-8"
     inkscape:window-y="-8"
     inkscape:window-maximized="1" />
  <metadata
     id="metadata7">
    <rdf:RDF>
      <cc:Work
         rdf:about="">
        <dc:format>image/svg+xml</dc:format>
        <dc:type
           rdf:resource="http://purl.org/dc/dcmitype/StillImage" />
        <dc:title></dc:title>
      </cc:Work>
    </rdf:RDF>
  </metadata>
  <g
     inkscape:label="Ebene 1"
     inkscape:groupmode="layer"
     id="layer1"
     transform="translate(-268.17926,-215.96737)">
    <rect
       style="fill:#000000;fill-opacity:0.99215686000000003;stroke:none"
       id="rect3055"
       width="200.26274"
       height="128.03683"
       x="-4.5456862"
       y="-6.6231747"
       transform="translate(268.17926,215.96737)" />
    <path
       style="fill:#ffffff;fill-opacity:0.99215686000000003;stroke:#ffffff;stroke-width:0.20000000000000001;stroke-miterlimit:4;stroke-dasharray:none;stroke-dashoffset:0"
       id="path3021"
       d="m 275.03529,283.41448 c -0.0487,0.3572 -0.13568,0.71124 -0.14594,1.07158 -0.0398,1.39698 0.18717,3.42679 0.36045,4.71937 0.37535,2.80002 0.75834,4.92413 1.47408,7.69549 0.38594,1.49434 0.86321,2.96359 1.29482,4.44538 1.89611,5.54763 4.26072,11.1807 8.93564,14.99053 2.87105,2.33977 3.68071,2.30335 7.11926,3.54853 1.47061,0.19525 2.92852,0.56073 4.41183,0.58574 5.99149,0.10105 11.78363,-2.06766 17.08601,-4.63329 0.55801,-0.27001 1.00826,-0.722 1.49802,-1.10202 2.44768,-1.89923 4.87581,-3.82353 7.31371,-5.73529 11.38035,-10.30632 19.45271,-22.5533 26.05266,-36.3296 3.80016,-7.93221 4.79268,-11.23089 7.73167,-19.29817 3.08309,-8.9596 5.39692,-18.16454 7.00785,-27.49723 0.0149,-0.27551 -0.19472,-0.68944 0.0447,-0.82654 0.21017,-0.12034 -0.0662,0.79041 0.16169,0.70836 2.09045,-0.75275 3.80007,-2.54941 5.99019,-2.92356 0.68116,-0.11636 -0.39966,1.32384 -0.56027,1.99595 -0.56987,2.38476 -1.00682,4.98104 -1.44657,7.37362 -2.083,13.86509 -5.0127,27.57455 -7.9742,41.27195 -1.26447,5.92072 -2.38419,11.87373 -3.23681,17.86852 -0.3749,2.63595 -0.73069,5.28852 -0.81456,7.95439 -0.029,0.92277 0.0354,1.84612 0.0531,2.76919 0.23963,1.62518 0.42879,4.14322 2.30648,4.8431 0.8148,0.30371 1.34162,0.0629 2.16732,-0.0986 0.49423,-0.25127 1.97292,-1.01281 1.48269,-0.75382 -1.40293,0.74117 -2.63438,2.17868 -4.22091,2.20042 -1.06829,0.0146 1.62827,-1.39115 2.3544,-2.17485 0.95516,-1.03088 1.84642,-2.12341 2.6779,-3.2564 2.39844,-3.26821 4.00191,-6.22165 6.07824,-9.74629 7.24306,-13.47041 11.83524,-28.10344 16.93789,-42.4573 1.01541,-2.85639 2.0668,-5.69987 3.1002,-8.54981 2.27649,-5.99391 4.58387,-11.98625 7.25809,-17.81722 0.47227,-1.02976 1.78506,-3.80429 2.58266,-4.99735 0.1426,-0.21331 0.36411,-0.36162 0.54617,-0.54242 2.33399,-0.7226 4.56134,-2.28168 7.00198,-2.1678 0.83069,0.0388 -0.11355,1.6612 -0.23833,2.48339 -0.18794,1.23838 -0.46891,2.46086 -0.69888,3.69214 -1.13531,6.07841 -2.25122,12.1535 -3.29136,18.2493 -0.49892,2.9817 -1.0102,5.96136 -1.49675,8.94511 -1.40009,8.58586 -1.94801,11.94815 -3.03963,20.69739 -1.28105,10.26756 -2.20913,20.55949 -3.04656,30.87044 -0.62772,8.60288 -1.08882,17.21842 -1.14287,25.8445 0,0 -6.05017,3.05778 -6.05017,3.05778 l 0,0 c 0.51366,-8.77778 1.18851,-17.54516 1.97843,-26.30249 1.30742,-13.90037 2.69117,-27.79648 4.53847,-41.63759 0.44141,-3.30726 0.9458,-6.6058 1.41679,-9.90897 0.41951,-2.94212 0.83647,-5.8846 1.2547,-8.8269 0.8402,-5.99311 1.79042,-11.96398 2.66651,-17.95128 0.17229,-1.17748 0.36643,-2.35223 0.50492,-3.53415 0.0826,-0.70463 -0.359,-1.63651 0.15786,-2.12249 1.84273,-1.73262 4.27544,-2.70393 6.41315,-4.0559 -0.30172,0.10504 -0.67916,0.0893 -0.90516,0.3151 -0.84271,0.84204 -2.8004,4.55329 -3.0951,5.12892 -3.00133,5.86236 -5.47145,11.98133 -7.94262,18.07851 -1.07891,2.86745 -2.19152,5.72245 -3.23674,8.60235 -5.15095,14.19234 -9.42281,28.771 -16.2806,42.28102 -2.48565,4.45399 -4.85477,9.04021 -8.17269,12.95703 -3.11091,3.67245 -7.45535,6.2199 -11.98312,7.77877 -1.11649,0.0402 -1.52074,0.21969 -2.51144,-0.32759 -1.97541,-1.09123 -2.19581,-3.61118 -2.36717,-5.58769 0.0159,-0.96283 -0.0142,-1.92751 0.0477,-2.88848 0.1771,-2.75301 0.61615,-5.41541 1.06751,-8.13724 1.00449,-6.05732 2.21437,-12.07848 3.56813,-18.06714 3.01627,-13.56162 5.91278,-27.16248 7.46432,-40.98583 0.321,-2.21747 0.70916,-4.97909 1.07425,-7.24015 0.10795,-0.66852 -0.13782,-1.53046 0.34883,-2.00135 1.97258,-1.90865 4.31606,-3.42208 6.68648,-4.80597 0.46348,-0.2706 0.86054,1.73643 0.3557,1.57029 -2.46267,9.4902 -4.77987,19.03183 -8.29523,28.20999 -1.17802,3.11509 -2.26927,6.26439 -3.53407,9.34527 -5.76939,14.05347 -12.90761,27.71641 -22.9224,39.248 -2.21961,2.55578 -4.72324,4.85034 -7.08485,7.27551 -8.63556,6.97926 -7.77195,6.84187 -19.2641,12.95492 -5.00254,2.66102 -11.9005,4.78691 -17.64687,4.6142 -1.53491,-0.0461 -3.039,-0.44358 -4.5585,-0.66537 -3.51185,-1.3511 -4.37253,-1.34194 -7.28073,-3.80025 -4.67617,-3.95277 -7.03963,-9.70364 -9.01697,-15.3225 -0.45988,-1.48163 -0.95791,-2.95195 -1.37965,-4.44488 -0.80833,-2.86144 -1.20544,-4.76596 -1.73097,-7.63576 -0.14555,-0.79479 -0.63048,-3.66947 -0.71086,-4.71254 -0.0272,-0.35323 0.0139,-0.70842 0.0208,-1.06263 0,0 6.72934,-3.30935 6.72934,-3.30935 z"
       inkscape:connector-curvature="0" />
    <rect
       style="fill:#000000;fill-opacity:0.99215686000000003;stroke:none;stroke-width:1"
       id="rect3053"
       width="62.124382"
       height="8.8388348"
       x="333.70047"
       y="281.72531"
       transform="matrix(0.99973682,-0.02294087,0.02294087,0.99973682,0,0)" />
    <path
       style="fill:#ffffff;fill-opacity:0.99215686000000003;stroke:#ffffff;stroke-width:0.20000000000000001;stroke-miterlimit:4;stroke-dasharray:none;stroke-dashoffset:0"
       id="path3023"
       d="m 447.54581,239.77439 c -5.18159,-0.52561 -10.39755,-0.4572 -15.59433,-0.27406 -7.13675,0.64489 -14.52949,1.04414 -21.20149,3.92356 -0.87527,0.37773 -1.69733,0.86845 -2.54599,1.30268 1.43942,-0.75855 2.77566,-1.75825 4.31826,-2.27565 0.48951,-0.16418 -0.76904,0.71544 -1.0169,1.16836 -0.49665,0.90751 -0.19972,1.46983 0.59177,2.06545 1.466,1.10323 3.46513,1.64482 5.12209,2.24867 1.33509,0.37457 2.65795,0.79582 4.00527,1.12373 2.55365,0.62149 6.73639,1.36972 9.30051,1.8477 4.16304,0.77603 8.3184,1.53925 12.45652,2.43911 2.36436,0.73104 7.80235,1.67866 8.31018,4.86312 0.075,0.47019 -0.0587,0.95045 -0.0881,1.42568 -0.25571,0.52461 -0.43351,1.09497 -0.76712,1.57384 -1.6525,2.372 -4.47194,4.13442 -6.92775,5.51203 -10.38768,5.82708 -6.91957,4.33541 -15.1365,7.09311 -2.18828,0.52681 -4.35829,1.13632 -6.56483,1.58044 -5.5121,1.10945 -11.04859,1.78971 -16.6437,2.32139 -10.36811,0.98524 -20.76429,1.2819 -31.16813,1.59425 -20.14232,0.48295 -40.29181,0.42406 -60.43655,0.72092 -7.98091,0.14155 -15.97411,0.15896 -23.89773,1.21279 -1.56338,0.23301 -0.83641,0.1231 -2.18109,0.32853 0,0 5.93685,-4.4364 5.93685,-4.4364 l 0,0 c 1.28091,-0.14934 0.58861,-0.0716 2.07727,-0.23013 7.66738,-0.68661 15.3673,-0.46877 23.0564,-0.5069 19.97851,0.0133 39.96155,0.24001 59.93479,-0.37403 10.50043,-0.38959 20.99763,-0.75442 31.45361,-1.8673 5.6594,-0.60235 11.34134,-1.3865 16.90463,-2.61574 2.25836,-0.499 4.47341,-1.17703 6.71012,-1.76554 1.77328,-0.64429 3.45617,-1.63894 5.31983,-1.93287 0.75301,-0.11877 -2.53252,1.65924 -1.82268,1.3813 1.09642,-0.42931 2.03625,-1.18655 3.01125,-1.8467 1.78574,-1.20907 3.50398,-2.57446 4.55302,-4.49252 0.0799,-0.36605 0.25376,-0.72376 0.23954,-1.09814 -0.10232,-2.69246 -5.7639,-3.88879 -7.55639,-4.50249 -4.07165,-0.96005 -8.15722,-1.76634 -12.26905,-2.53762 -2.52297,-0.47325 -6.90717,-1.25022 -9.42132,-1.83007 -1.3937,-0.32143 -2.76742,-0.72403 -4.15113,-1.08604 -1.90257,-0.64832 -5.93154,-1.53489 -6.74625,-3.88141 -1.31453,-3.7861 10.39614,-7.98086 9.01762,-7.6317 0.83394,-0.38836 1.64556,-0.8288 2.50184,-1.16508 6.73637,-2.64553 14.09107,-2.97429 21.20807,-3.66989 5.40689,-0.23633 10.83051,-0.37388 16.23638,-0.0277 0,0 -6.12879,4.3213 -6.12879,4.3213 z"
       inkscape:connector-curvature="0" />
  </g>
</svg>
